<svg width="110" height="62" viewBox="0 0 110 62" fill="none" xmlns="http://www.w3.org/2000/svg">
<g clip-path="url(#clip0_242_1149)">
<path d="M25.9738 21.3624V22.3183H12.6051V21.3624C15.0668 21.1813 15.9264 20.854 15.9264 19.8669C15.8472 19.0994 15.6418 18.3505 15.3186 17.6511L14.6349 15.9167H7.34657C6.67488 17.7126 6.24929 18.9075 6.24929 19.7475C6.24929 20.8787 7.10959 21.24 9.28804 21.3624V22.3183H0.854004V21.3624C2.67697 21.1205 3.6137 20.5846 4.62194 18.0131L9.90084 4.73043L9.12888 2.8426C10.8411 2.08491 12.4639 1.13627 13.9668 0.0144043H14.6777L22.7493 19.1861C23.5205 20.982 24.1712 21.3312 25.9794 21.3708L25.9738 21.3624ZM14.0523 14.4177L10.9098 6.44856L7.9138 14.4177H14.0523Z" fill="#465250"/>
<path d="M44.7787 13.734C44.7787 19.0574 41.782 22.6209 37.2449 22.6209C36.0181 22.6312 34.814 22.2878 33.7743 21.631V25.0022C33.7743 26.6171 34.2784 27.0951 36.3236 27.3355V28.295H25.8857V27.3376C27.457 27.1905 27.8426 26.8321 27.8426 25.6032V11.371C27.8426 9.90601 27.457 9.45563 25.8857 9.15866V8.26071C28.4961 7.57134 31.6351 6.64581 33.7168 5.98684H33.7743V8.17162C34.3098 7.48347 34.995 6.92859 35.7769 6.54978C36.5588 6.17098 37.4166 5.97838 38.284 5.98684C42.1677 5.98684 44.778 9.09786 44.778 13.734H44.7787ZM38.3731 14.9027C38.3731 11.4304 37.2155 9.09856 35.5257 9.09856C34.8973 9.1029 34.2855 9.30183 33.7729 9.66844V18.9379C34.1284 20.4029 34.812 21.1198 35.7024 21.1198C37.3038 21.1198 38.3703 18.6098 38.3703 14.902" fill="#465250"/>
<path d="M62.4839 17.7422C61.807 19.2282 60.7132 20.4816 59.3376 21.3475C57.9621 22.2134 56.3651 22.6539 54.744 22.6145C49.702 22.6145 46.3506 19.2956 46.3506 14.3003C46.3506 9.30498 49.8815 5.98608 55.185 5.98608C59.3967 5.98608 62.2139 8.79943 62.2139 13.0163H52.2815C52.3117 16.6357 54.4754 19.0262 57.7505 19.0262C59.2776 18.9916 60.7371 18.384 61.8437 17.3222L62.4839 17.7422ZM52.3447 11.7606H52.9953C55.1892 11.7606 56.6412 10.6236 56.6412 8.94721C56.6671 8.7354 56.6492 8.5205 56.5887 8.31601C56.5282 8.11152 56.4263 7.92186 56.2896 7.75897C56.1529 7.59607 55.9843 7.46346 55.7943 7.36947C55.6043 7.27548 55.3971 7.22214 55.1857 7.21282C53.6432 7.21282 52.5781 8.98044 52.3411 11.7606" fill="#465250"/>
<path d="M71.3238 14.2119V19.0142C71.3238 20.6595 71.8279 21.1353 73.8732 21.3475V22.3055H63.4346V21.3616C65.0058 21.2117 65.3915 20.8532 65.3915 19.6237V11.371C65.3915 9.90598 65.0058 9.45559 63.4346 9.15863V8.26068C65.9236 7.54373 68.9504 6.64578 70.9368 5.98681H70.9943L71.3224 10.1761C72.0642 8.03089 73.9026 5.98681 75.978 5.98681C76.3265 5.96475 76.6756 6.01772 77.0022 6.14221C77.3288 6.26669 77.6255 6.45984 77.8724 6.70882C78.1193 6.9578 78.3108 7.25691 78.4342 7.58628C78.5577 7.91565 78.6102 8.26774 78.5883 8.61915C78.5751 9.22703 78.3895 9.81836 78.0534 10.3231H72.6868C72.0819 11.5608 71.6239 12.866 71.3224 14.2119" fill="#465250"/>
<path d="M90.6306 18.5794L91.1592 19.1189C90.6303 20.1493 89.8364 21.0175 88.8608 21.6326C87.8851 22.2476 86.7635 22.587 85.6132 22.6153C82.8234 22.6153 80.9857 21.0004 80.9857 18.5794V8.19994H79.0337V7.30623C81.6541 6.17063 83.9862 4.45261 85.8558 2.28052H86.8037V6.28878H91.1585L90.7421 8.19782H86.9222V17.9827C86.9222 19.3586 87.2258 19.7758 88.1682 19.7758C89.1126 19.7193 89.997 19.29 90.6299 18.5808" fill="#465250"/>
<path d="M109.137 18.9068C108.828 19.9409 108.208 20.8528 107.363 21.5169C106.519 22.181 105.49 22.5645 104.42 22.6146C102.521 22.6146 101.099 21.747 100.862 20.4326C99.8805 21.747 97.8234 22.6146 95.7326 22.6146C93.3017 22.6146 91.6968 21.361 91.6968 19.4767C91.6968 17.9813 92.7057 16.6054 95.2551 15.6459L100.864 13.5247V10.0241C100.864 8.49197 99.9738 7.47876 98.6093 7.47876C98.471 7.47461 98.3326 7.4848 98.1964 7.50917V13.3989C97.2813 13.9897 96.2253 14.3211 95.1394 14.3584C93.5969 14.3584 92.59 13.6414 92.59 12.2372C92.59 8.61782 97.1271 5.98547 101.725 5.98547C104.779 5.98547 106.797 7.8238 106.797 10.6223V18.7873C106.797 19.2957 106.916 19.4767 107.271 19.4767C107.538 19.4231 107.788 19.3015 107.995 19.1234C108.202 18.9453 108.361 18.7167 108.456 18.4592L109.137 18.9068ZM100.864 14.9593C99.1107 15.7074 97.9278 16.9638 97.9278 18.0237C97.9128 18.218 97.9397 18.4133 98.0065 18.5962C98.0734 18.7791 98.1788 18.9452 98.3153 19.0832C98.4518 19.2211 98.6164 19.3277 98.7976 19.3955C98.9788 19.4633 99.1724 19.4907 99.3652 19.476C99.9189 19.4824 100.457 19.2913 100.885 18.9365L100.864 14.9593Z" fill="#465250"/>
<path d="M33.6599 52.826C32.9489 52.826 32.7119 53.0346 32.414 53.8159H31.8825L30.1899 45.6516L31.1989 45.4098C33.0373 49.657 36.3873 52.4584 39.5348 52.4584C42.3793 52.4584 43.8349 51.4105 43.8349 49.5595C43.8349 47.4383 41.343 46.36 38.4957 45.1927C34.9065 43.7277 30.8743 42.0237 30.8743 37.715C30.8743 33.8566 34.1956 31.3466 39.119 31.3466C41.9663 31.3466 43.4492 32.5111 44.9903 32.5111C45.6136 32.5111 45.9018 32.3025 46.1479 31.4936H46.652L48.2535 39.3907L47.3055 39.5681C45.763 35.5323 42.4676 32.8264 39.1183 32.8264C37.1915 32.8264 35.9456 33.7456 35.9456 35.0975C35.9456 37.2426 38.6443 38.4467 41.6101 39.6933C45.1993 41.2255 49.0829 42.9542 49.0829 46.7235C49.0829 51.0902 45.4061 53.9311 39.6806 53.9311C36.8634 53.9311 35.2318 52.7942 33.6606 52.7942" fill="#465250"/>
<path d="M50.8633 45.6481C50.8633 40.6528 54.4524 37.3311 59.8491 37.3311C65.2458 37.3311 68.8349 40.6542 68.8349 45.6481C68.8349 50.642 65.2458 53.9503 59.8603 53.9503C54.4749 53.9503 50.8633 50.6406 50.8633 45.6481ZM62.4321 45.6481C62.4321 41.3577 61.393 38.5295 59.8519 38.5295C58.3108 38.5295 57.2717 41.3704 57.2717 45.6481C57.2717 49.9257 58.308 52.7638 59.8519 52.7638C61.3958 52.7638 62.4321 49.9229 62.4321 45.6481Z" fill="#465250"/>
<path d="M79.6272 52.7059V53.6618H69.7832V52.7059C71.3545 52.556 71.7401 52.1975 71.7401 50.9715V34.8211C71.7401 33.3532 71.3545 32.9057 69.7832 32.6087V31.7108C72.3936 30.9938 75.5389 30.0959 77.6143 29.4369H77.6718V50.9715C77.6718 52.1975 78.0574 52.556 79.6286 52.7059" fill="#465250"/>
<path d="M91.6252 49.9236L92.1602 50.4631C91.6297 51.4916 90.8353 52.3576 89.8598 52.971C88.8843 53.5844 87.7634 53.9226 86.6142 53.9503C83.8243 53.9503 81.9866 52.3354 81.9866 49.9109V39.547H80.0283V38.649C82.6494 37.5146 84.9818 35.7964 86.8504 33.6233H87.7984V37.6316H92.1595L91.743 39.547H87.9169V49.3262C87.9169 50.7021 88.2205 51.1221 89.1628 51.1221C90.108 51.0657 90.9935 50.6349 91.6252 49.9236Z" fill="#465250"/>
<path d="M110 50.2545C109.691 51.2887 109.071 52.2006 108.227 52.8646C107.382 53.5287 106.354 53.9122 105.284 53.9623C103.391 53.9623 101.962 53.0948 101.725 51.7775C100.744 53.0955 98.7014 53.9623 96.5958 53.9623C94.165 53.9623 92.5601 52.7059 92.5601 50.8209C92.5601 49.3255 93.569 47.9496 96.1219 46.9929L101.725 44.8718V41.3874C101.725 39.8553 100.835 38.8421 99.4705 38.8421C99.3322 38.838 99.1938 38.8482 99.0576 38.8725V44.7565C98.1424 45.3444 97.0878 45.6745 96.0034 45.7125C94.4609 45.7125 93.4505 44.9955 93.4505 43.5913C93.4505 39.9719 97.9876 37.3424 102.586 37.3424C105.624 37.3424 107.658 39.1963 107.658 41.9757V50.1379C107.658 50.6462 107.776 50.8273 108.132 50.8273C108.399 50.7737 108.648 50.6521 108.855 50.474C109.063 50.2959 109.222 50.0673 109.317 49.8098L110 50.2545ZM101.727 46.3043C99.9739 47.0523 98.7911 48.3087 98.7911 49.387C98.7786 49.5786 98.8068 49.7706 98.8739 49.9503C98.9409 50.13 99.0453 50.2931 99.1799 50.4289C99.3145 50.5646 99.4763 50.6698 99.6545 50.7374C99.8326 50.805 100.023 50.8335 100.213 50.8209C100.767 50.8289 101.306 50.6376 101.732 50.2814L101.727 46.3043Z" fill="#465250"/>
<path d="M18.781 54.658C18.7619 52.8692 18.1232 51.1434 16.9756 49.7793C15.5473 51.4282 13.4355 52.7673 9.72434 52.7673C4.31504 52.7673 -0.000488281 51.0478 -0.000488281 46.3332C-0.000488281 43.4159 1.36113 41.4545 5.34502 40.5658C3.42739 38.8314 2.33922 37.0935 2.33922 34.6421C2.33922 29.9409 6.18638 28.0199 10.1675 28.0199C14.9352 28.0199 16.9749 29.9077 16.9749 32.5832C16.9749 34.9518 15.2395 36.8396 11.5059 38.1456C12.2538 38.6603 13.1391 39.2436 14.1619 39.8955C16.0015 40.9944 17.7315 42.27 19.3279 43.7044C19.6777 42.0563 19.8721 40.3785 19.9084 38.6935H17.216V38.0133H23.1386V38.6999H20.7547C20.7409 40.65 20.524 42.5933 20.1075 44.4977C21.7398 46.3183 23.0678 48.1036 23.0678 51.4664C23.0678 56.3698 19.0166 61.0115 14.5924 61.0115C11.6322 61.0115 9.93048 59.7063 9.93048 57.5428C9.91344 57.1627 9.97455 56.7833 10.11 56.4282C10.2454 56.0732 10.4522 55.7502 10.7174 55.4797C10.9826 55.2091 11.3004 54.9968 11.6509 54.8562C12.0014 54.7155 12.377 54.6495 12.754 54.6622C14.4921 54.6622 15.4884 55.5206 15.4884 57.132C15.476 57.548 15.4076 57.9605 15.2851 58.358H14.0826C13.7426 59.3874 13.9424 60.1786 15.2984 60.1786C17.6122 60.1786 18.7719 57.5343 18.7719 54.6636L18.781 54.658ZM16.4013 49.0617C15.0836 47.6998 13.6095 46.5013 12.0101 45.4918C9.85602 44.1582 7.78645 42.6906 5.81338 41.0975C5.47332 41.818 5.30295 43.0192 5.30295 45.3879C5.30295 50.2665 7.21145 51.8758 10.6821 51.8758C11.7907 51.9133 12.8916 51.6765 13.8885 51.186C14.8855 50.6956 15.7482 49.9665 16.4013 49.0624V49.0617ZM10.8854 37.7234C13.0127 36.5922 13.0309 35.0451 13.0309 32.7805C13.0309 30.023 12.0101 28.7291 10.0707 28.7291C8.63968 28.7291 6.93731 29.4496 6.93731 32.229C6.93731 34.3742 7.78849 35.5599 10.8882 37.7234" fill="#465250"/>
</g>
<defs>
<clipPath id="clip0_242_1149">
<rect width="110" height="61" fill="white" transform="translate(0 0.0144043)"/>
</clipPath>
</defs>
</svg>
