<svg width="41" height="38" viewBox="0 0 41 38" fill="none" xmlns="http://www.w3.org/2000/svg">
<path d="M16.6046 36.5151H17.1046V36.0151V19.9683V19.4683H16.6046H10.8059V17.1189C10.8059 15.988 10.8799 15.0599 11.0218 14.327C11.1639 13.5926 11.3674 13.0905 11.6013 12.7758C12.7126 11.3899 14.071 10.7203 15.7048 10.7203H16.2048V10.2203V1.37207V0.832132L15.6665 0.873543C10.3987 1.27876 6.54062 2.85658 4.21944 5.7053L4.21929 5.70518L4.21075 5.71628C2.1168 8.43842 1.10767 12.3643 1.10767 17.4188V36.0151V36.5151H1.60767H16.6046ZM39.9999 36.5151H40.4999V36.0151V19.9683V19.4683H39.9999H34.2012V17.1189C34.2012 16.0139 34.2532 15.3227 34.3362 14.9906L34.3433 14.9623L34.3471 14.9333C34.5368 13.4627 35.0373 12.4279 35.7949 11.7569C36.5519 11.0863 37.6321 10.7203 39.1001 10.7203H39.6001V10.2203V1.37207V0.832132L39.0618 0.873543C33.776 1.28015 29.8256 3.0167 27.312 6.1587L27.312 6.15869L27.3087 6.1629C25.4061 8.5939 24.503 12.3801 24.503 17.4188V36.0151V36.5151H25.003H39.9999Z" stroke="#B40735"/>
</svg>
