<svg width="152" height="29" viewBox="0 0 152 29" fill="none" xmlns="http://www.w3.org/2000/svg">
<path d="M33.584 9.49658L29.8184 19.8638H28.2793L32.6152 8.48877H33.6074L33.584 9.49658ZM36.7402 19.8638L32.9668 9.49658L32.9434 8.48877H33.9355L38.2871 19.8638H36.7402ZM36.5449 15.6528V16.8872H30.1543V15.6528H36.5449ZM42.9902 11.4106V12.52H38.4199V11.4106H42.9902ZM39.9668 9.35596H41.4121V17.77C41.4121 18.0565 41.4564 18.2726 41.5449 18.4185C41.6335 18.5643 41.748 18.6606 41.8887 18.7075C42.0293 18.7544 42.1803 18.7778 42.3418 18.7778C42.4616 18.7778 42.5866 18.7674 42.7168 18.7466C42.8522 18.7205 42.9538 18.6997 43.0215 18.6841L43.0293 19.8638C42.9147 19.9002 42.7637 19.9341 42.5762 19.9653C42.3939 20.0018 42.1725 20.02 41.9121 20.02C41.5579 20.02 41.2324 19.9497 40.9355 19.8091C40.6387 19.6685 40.4017 19.4341 40.2246 19.106C40.0527 18.7726 39.9668 18.3247 39.9668 17.7622V9.35596ZM48.1934 20.02C47.6048 20.02 47.071 19.9211 46.5918 19.7231C46.1178 19.52 45.709 19.2362 45.3652 18.8716C45.0267 18.507 44.7663 18.0747 44.584 17.5747C44.4017 17.0747 44.3105 16.5278 44.3105 15.9341V15.606C44.3105 14.9185 44.4121 14.3065 44.6152 13.77C44.8184 13.2284 45.0944 12.77 45.4434 12.395C45.7923 12.02 46.1882 11.7362 46.6309 11.5435C47.0736 11.3507 47.5319 11.2544 48.0059 11.2544C48.61 11.2544 49.1309 11.3586 49.5684 11.5669C50.0111 11.7752 50.373 12.0669 50.6543 12.4419C50.9355 12.8117 51.1439 13.2492 51.2793 13.7544C51.4147 14.2544 51.4824 14.8013 51.4824 15.395V16.0435H45.1699V14.8638H50.0371V14.7544C50.0163 14.3794 49.9382 14.0148 49.8027 13.6606C49.6725 13.3065 49.4642 13.0148 49.1777 12.7856C48.8913 12.5565 48.5007 12.4419 48.0059 12.4419C47.6777 12.4419 47.3757 12.5122 47.0996 12.6528C46.8236 12.7882 46.5866 12.9914 46.3887 13.2622C46.1908 13.533 46.0371 13.8638 45.9277 14.2544C45.8184 14.645 45.7637 15.0955 45.7637 15.606V15.9341C45.7637 16.3351 45.8184 16.7127 45.9277 17.0669C46.0423 17.4159 46.2064 17.7231 46.4199 17.9888C46.6387 18.2544 46.9017 18.4627 47.209 18.6138C47.5215 18.7648 47.8757 18.8403 48.2715 18.8403C48.7819 18.8403 49.2142 18.7362 49.5684 18.5278C49.9225 18.3195 50.2324 18.0409 50.498 17.6919L51.373 18.3872C51.1908 18.6632 50.959 18.9263 50.6777 19.1763C50.3965 19.4263 50.0501 19.6294 49.6387 19.7856C49.2324 19.9419 48.7507 20.02 48.1934 20.02ZM54.6152 13.2153V19.8638H53.1699V11.4106H54.5371L54.6152 13.2153ZM54.2715 15.3169L53.6699 15.2935C53.6751 14.7153 53.7611 14.1815 53.9277 13.6919C54.0944 13.1971 54.3288 12.7674 54.6309 12.4028C54.9329 12.0382 55.2923 11.757 55.709 11.5591C56.1309 11.356 56.597 11.2544 57.1074 11.2544C57.5241 11.2544 57.8991 11.3117 58.2324 11.4263C58.5658 11.5356 58.8496 11.7127 59.084 11.9575C59.3236 12.2023 59.5059 12.52 59.6309 12.9106C59.7559 13.2961 59.8184 13.7674 59.8184 14.3247V19.8638H58.3652V14.3091C58.3652 13.8664 58.3001 13.5122 58.1699 13.2466C58.0397 12.9757 57.8496 12.7804 57.5996 12.6606C57.3496 12.5356 57.0423 12.4731 56.6777 12.4731C56.3184 12.4731 55.9902 12.5487 55.6934 12.6997C55.4017 12.8507 55.1491 13.0591 54.9355 13.3247C54.7272 13.5903 54.5632 13.895 54.4434 14.2388C54.3288 14.5773 54.2715 14.9367 54.2715 15.3169ZM65.3965 18.8325C65.7402 18.8325 66.0579 18.7622 66.3496 18.6216C66.6413 18.481 66.8809 18.2882 67.0684 18.0435C67.2559 17.7935 67.3626 17.5096 67.3887 17.1919H68.7637C68.7376 17.6919 68.5684 18.158 68.2559 18.5903C67.9486 19.0174 67.5449 19.3638 67.0449 19.6294C66.5449 19.8898 65.9954 20.02 65.3965 20.02C64.7611 20.02 64.2064 19.908 63.7324 19.6841C63.2637 19.4601 62.873 19.1528 62.5605 18.7622C62.2533 18.3716 62.0215 17.9237 61.8652 17.4185C61.7142 16.908 61.6387 16.369 61.6387 15.8013V15.4731C61.6387 14.9054 61.7142 14.369 61.8652 13.8638C62.0215 13.3534 62.2533 12.9028 62.5605 12.5122C62.873 12.1216 63.2637 11.8143 63.7324 11.5903C64.2064 11.3664 64.7611 11.2544 65.3965 11.2544C66.0579 11.2544 66.6361 11.3898 67.1309 11.6606C67.6257 11.9263 68.0137 12.2909 68.2949 12.7544C68.5814 13.2127 68.7376 13.7336 68.7637 14.3169H67.3887C67.3626 13.9679 67.2637 13.6528 67.0918 13.3716C66.9251 13.0903 66.696 12.8664 66.4043 12.6997C66.1178 12.5278 65.7819 12.4419 65.3965 12.4419C64.9538 12.4419 64.5814 12.5304 64.2793 12.7075C63.9824 12.8794 63.7454 13.1138 63.5684 13.4106C63.3965 13.7023 63.2715 14.0278 63.1934 14.3872C63.1204 14.7414 63.084 15.1034 63.084 15.4731V15.8013C63.084 16.1711 63.1204 16.5356 63.1934 16.895C63.2663 17.2544 63.3887 17.5799 63.5605 17.8716C63.7376 18.1632 63.9746 18.3976 64.2715 18.5747C64.5736 18.7466 64.9486 18.8325 65.3965 18.8325ZM64.5996 19.9419H65.6387L65.5449 20.356C65.847 20.408 66.1204 20.533 66.3652 20.731C66.6152 20.9289 66.7402 21.2544 66.7402 21.7075C66.7402 21.9523 66.6882 22.1737 66.584 22.3716C66.485 22.5747 66.3366 22.7466 66.1387 22.8872C65.9408 23.033 65.6934 23.145 65.3965 23.2231C65.1048 23.3013 64.7637 23.3403 64.373 23.3403L64.3184 22.5044C64.5579 22.5044 64.7741 22.4784 64.9668 22.4263C65.1647 22.3742 65.321 22.2909 65.4355 22.1763C65.5553 22.0617 65.6152 21.9132 65.6152 21.731C65.6152 21.5591 65.571 21.4237 65.4824 21.3247C65.3939 21.2257 65.2559 21.1502 65.0684 21.0981C64.8861 21.0513 64.6491 21.0174 64.3574 20.9966L64.5996 19.9419ZM75.373 18.4185V14.0669C75.373 13.7336 75.3053 13.4445 75.1699 13.1997C75.0397 12.9497 74.8418 12.757 74.5762 12.6216C74.3105 12.4862 73.9824 12.4185 73.5918 12.4185C73.2272 12.4185 72.9069 12.481 72.6309 12.606C72.36 12.731 72.1465 12.895 71.9902 13.0981C71.8392 13.3013 71.7637 13.52 71.7637 13.7544H70.3184C70.3184 13.4523 70.3965 13.1528 70.5527 12.856C70.709 12.5591 70.9329 12.2909 71.2246 12.0513C71.5215 11.8065 71.8757 11.6138 72.2871 11.4731C72.7038 11.3273 73.1673 11.2544 73.6777 11.2544C74.2923 11.2544 74.834 11.3586 75.3027 11.5669C75.7767 11.7752 76.1465 12.0903 76.4121 12.5122C76.6829 12.9289 76.8184 13.4523 76.8184 14.0825V18.02C76.8184 18.3013 76.8418 18.6007 76.8887 18.9185C76.9408 19.2362 77.0163 19.5096 77.1152 19.7388V19.8638H75.6074C75.5345 19.6971 75.4772 19.4757 75.4355 19.1997C75.3939 18.9185 75.373 18.658 75.373 18.4185ZM75.623 14.7388L75.6387 15.7544H74.1777C73.7663 15.7544 73.3991 15.7882 73.0762 15.856C72.7533 15.9185 72.4824 16.0148 72.2637 16.145C72.0449 16.2752 71.8783 16.4393 71.7637 16.6372C71.6491 16.8299 71.5918 17.0565 71.5918 17.3169C71.5918 17.5825 71.6517 17.8247 71.7715 18.0435C71.8913 18.2622 72.071 18.4367 72.3105 18.5669C72.5553 18.6919 72.8548 18.7544 73.209 18.7544C73.6517 18.7544 74.0423 18.6606 74.3809 18.4731C74.7194 18.2856 74.9876 18.0565 75.1855 17.7856C75.3887 17.5148 75.498 17.2518 75.5137 16.9966L76.1309 17.6919C76.0944 17.9106 75.9954 18.1528 75.834 18.4185C75.6725 18.6841 75.4564 18.9393 75.1855 19.1841C74.9199 19.4237 74.6022 19.6242 74.2324 19.7856C73.8678 19.9419 73.4564 20.02 72.998 20.02C72.4251 20.02 71.9225 19.908 71.4902 19.6841C71.0632 19.4601 70.7298 19.1606 70.4902 18.7856C70.2559 18.4054 70.1387 17.981 70.1387 17.5122C70.1387 17.0591 70.2272 16.6606 70.4043 16.3169C70.5814 15.9679 70.8366 15.6789 71.1699 15.4497C71.5033 15.2153 71.9043 15.0382 72.373 14.9185C72.8418 14.7987 73.3652 14.7388 73.9434 14.7388H75.623ZM75.6309 8.02002L76.6074 8.10596C76.6074 8.48617 76.5319 8.8195 76.3809 9.10596C76.2298 9.39242 76.0267 9.61377 75.7715 9.77002C75.5215 9.92627 75.2376 10.0044 74.9199 10.0044C74.6543 10.0044 74.4355 9.96794 74.2637 9.89502C74.0918 9.81689 73.9382 9.73096 73.8027 9.63721C73.6673 9.53825 73.5241 9.45231 73.373 9.37939C73.2272 9.30127 73.0449 9.26221 72.8262 9.26221C72.6074 9.26221 72.4225 9.34554 72.2715 9.51221C72.1257 9.67887 72.0527 9.8846 72.0527 10.1294L71.0762 10.0825C71.0762 9.70231 71.1491 9.36898 71.2949 9.08252C71.446 8.79085 71.6491 8.56429 71.9043 8.40283C72.1595 8.23617 72.4434 8.15283 72.7559 8.15283C72.9798 8.15283 73.1751 8.19189 73.3418 8.27002C73.5137 8.34294 73.6751 8.42887 73.8262 8.52783C73.9772 8.62158 74.1335 8.70752 74.2949 8.78564C74.4564 8.85856 74.6413 8.89502 74.8496 8.89502C75.0684 8.89502 75.2533 8.81169 75.4043 8.64502C75.5553 8.47314 75.6309 8.26481 75.6309 8.02002ZM78.709 15.731V15.5513C78.709 14.9419 78.7975 14.3768 78.9746 13.856C79.1517 13.3299 79.4069 12.8742 79.7402 12.4888C80.0736 12.0981 80.4772 11.7961 80.9512 11.5825C81.4251 11.3638 81.9564 11.2544 82.5449 11.2544C83.1387 11.2544 83.6725 11.3638 84.1465 11.5825C84.6257 11.7961 85.0319 12.0981 85.3652 12.4888C85.7038 12.8742 85.9616 13.3299 86.1387 13.856C86.3158 14.3768 86.4043 14.9419 86.4043 15.5513V15.731C86.4043 16.3403 86.3158 16.9054 86.1387 17.4263C85.9616 17.9471 85.7038 18.4028 85.3652 18.7935C85.0319 19.1789 84.6283 19.481 84.1543 19.6997C83.6855 19.9132 83.1543 20.02 82.5605 20.02C81.9668 20.02 81.4329 19.9132 80.959 19.6997C80.485 19.481 80.0788 19.1789 79.7402 18.7935C79.4069 18.4028 79.1517 17.9471 78.9746 17.4263C78.7975 16.9054 78.709 16.3403 78.709 15.731ZM80.1543 15.5513V15.731C80.1543 16.1528 80.2038 16.5513 80.3027 16.9263C80.4017 17.2961 80.5501 17.6242 80.748 17.9106C80.9512 18.1971 81.2038 18.4237 81.5059 18.5903C81.8079 18.7518 82.1595 18.8325 82.5605 18.8325C82.9564 18.8325 83.3027 18.7518 83.5996 18.5903C83.9017 18.4237 84.1517 18.1971 84.3496 17.9106C84.5475 17.6242 84.696 17.2961 84.7949 16.9263C84.8991 16.5513 84.9512 16.1528 84.9512 15.731V15.5513C84.9512 15.1346 84.8991 14.7414 84.7949 14.3716C84.696 13.9966 84.5449 13.6659 84.3418 13.3794C84.1439 13.0877 83.8939 12.8586 83.5918 12.6919C83.2949 12.5252 82.946 12.4419 82.5449 12.4419C82.1491 12.4419 81.8001 12.5252 81.498 12.6919C81.2012 12.8586 80.9512 13.0877 80.748 13.3794C80.5501 13.6659 80.4017 13.9966 80.3027 14.3716C80.2038 14.7414 80.1543 15.1346 80.1543 15.5513ZM88.1543 19.0981C88.1543 18.8534 88.2298 18.6476 88.3809 18.481C88.5371 18.3091 88.7611 18.2231 89.0527 18.2231C89.3444 18.2231 89.5658 18.3091 89.7168 18.481C89.873 18.6476 89.9512 18.8534 89.9512 19.0981C89.9512 19.3377 89.873 19.5409 89.7168 19.7075C89.5658 19.8742 89.3444 19.9575 89.0527 19.9575C88.7611 19.9575 88.5371 19.8742 88.3809 19.7075C88.2298 19.5409 88.1543 19.3377 88.1543 19.0981ZM88.1621 12.1997C88.1621 11.9549 88.2376 11.7492 88.3887 11.5825C88.5449 11.4106 88.7689 11.3247 89.0605 11.3247C89.3522 11.3247 89.5736 11.4106 89.7246 11.5825C89.8809 11.7492 89.959 11.9549 89.959 12.1997C89.959 12.4393 89.8809 12.6424 89.7246 12.8091C89.5736 12.9757 89.3522 13.0591 89.0605 13.0591C88.7689 13.0591 88.5449 12.9757 88.3887 12.8091C88.2376 12.6424 88.1621 12.4393 88.1621 12.1997Z" fill="white"/>
<rect x="1.16309" y="1.05811" width="149.675" height="26.6115" rx="13.3058" stroke="white"/>
<path d="M112.12 0.558105H137.532C145.156 0.558105 151.337 6.73917 151.337 14.3639V14.3639C151.337 21.9886 145.156 28.1697 137.532 28.1697H112.12V0.558105Z" fill="white"/>
<path d="M138.856 10.8607C138.773 11.2603 138.529 11.5521 138.247 11.8328C135.828 14.2439 133.413 16.6602 131 19.0779C130.731 19.3477 130.423 19.5206 130.038 19.5497C129.602 19.5827 129.227 19.4476 128.909 19.1497C128.893 19.1338 128.876 19.1175 128.86 19.1008C127.594 17.8356 126.329 16.5714 125.064 15.3053C124.6 14.8402 124.475 14.2038 124.732 13.6454C125.143 12.7534 126.305 12.5211 127.021 13.1939C127.315 13.4698 127.594 13.7616 127.879 14.0467C128.522 14.6888 129.166 15.3295 129.804 15.976C129.896 16.0697 129.945 16.0604 130.032 15.9729C132.134 13.8663 134.239 11.7633 136.342 9.65804C136.625 9.37465 136.951 9.20654 137.358 9.17574C137.963 9.12997 138.609 9.55463 138.785 10.1355C138.807 10.2108 138.832 10.2856 138.856 10.3604V10.8612V10.8607Z" fill="#FF9776"/>
</svg>
