<svg width="47" height="43" viewBox="0 0 47 43" fill="none" xmlns="http://www.w3.org/2000/svg">
<path d="M18.7187 42.3948H19.2187V41.8948V23.3788V22.8788H18.7187H11.9507V20.0909C11.9507 18.783 12.0362 17.7069 12.2011 16.8547C12.3664 16.001 12.6045 15.4085 12.8845 15.0324C14.1804 13.4157 15.7696 12.6307 17.6804 12.6307H18.1804V12.1307V1.9209V1.38096L17.642 1.42237C11.5742 1.88913 7.14691 3.70542 4.48727 6.96953L4.48712 6.96941L4.47857 6.98051C2.07693 10.1027 0.91394 14.6132 0.91394 20.437V41.8948V42.3948H1.41394H18.7187ZM45.714 42.3948H46.214V41.8948V23.3788V22.8788H45.714H38.9461V20.0909C38.9461 18.8167 39.0058 18.0101 39.1042 17.6164L39.1113 17.5881L39.115 17.5591C39.3355 15.85 39.9187 14.6364 40.8109 13.8461C41.7025 13.0563 42.9693 12.6307 44.6758 12.6307H45.1758V12.1307V1.9209V1.38096L44.6374 1.42237C38.5516 1.89051 34.0166 3.88861 31.1337 7.49217L31.1337 7.49215L31.1304 7.49636C28.951 10.2812 27.9093 14.6289 27.9093 20.437V41.8948V42.3948H28.4093H45.714Z" stroke="#B40735"/>
</svg>
