<svg width="34" height="34" viewBox="0 0 34 34" fill="none" xmlns="http://www.w3.org/2000/svg">
<path d="M11.334 5.66659V22.6666C11.334 23.418 11.6325 24.1387 12.1638 24.6701C12.6952 25.2014 13.4159 25.4999 14.1673 25.4999H25.5007C26.2521 25.4999 26.9728 25.2014 27.5041 24.6701C28.0355 24.1387 28.334 23.418 28.334 22.6666V10.2594C28.3339 9.88196 28.2585 9.50832 28.112 9.16043C27.9656 8.81254 27.7511 8.49743 27.4812 8.23358L22.7849 3.64075C22.2556 3.12318 21.5447 2.83334 20.8044 2.83325H14.1673C13.4159 2.83325 12.6952 3.13176 12.1638 3.66312C11.6325 4.19447 11.334 4.91514 11.334 5.66659V5.66659Z" stroke="#D0D0D0" stroke-width="2.83333" stroke-linecap="round" stroke-linejoin="round"/>
<path d="M22.666 25.5001V28.3334C22.666 29.0849 22.3675 29.8055 21.8362 30.3369C21.3048 30.8682 20.5841 31.1667 19.8327 31.1667H8.49935C7.7479 31.1667 7.02723 30.8682 6.49588 30.3369C5.96453 29.8055 5.66602 29.0849 5.66602 28.3334V12.7501C5.66602 11.9986 5.96453 11.278 6.49588 10.7466C7.02723 10.2153 7.7479 9.91675 8.49935 9.91675H11.3327" stroke="#D0D0D0" stroke-width="2.83333" stroke-linecap="round" stroke-linejoin="round"/>
</svg>
