<svg width="73" height="84" viewBox="0 0 73 84" fill="none" xmlns="http://www.w3.org/2000/svg">
<g clip-path="url(#clip0_377_463)">
<path d="M14.3692 8.39173C-1.39077 20.5417 -4.31077 43.1717 7.83923 58.9217C14.0492 66.9717 22.9792 71.6617 32.3392 72.7117L38.7092 82.9617L44.8492 71.9417C49.6192 70.7917 54.2392 68.6517 58.3692 65.4617C74.1292 53.3117 77.0492 30.6817 64.8992 14.9217C52.7492 -0.838276 30.1292 -3.75827 14.3692 8.39173Z" fill="white"/>
<path d="M14.3691 8.39171C14.3691 8.39171 14.5291 8.26171 14.8591 8.02171C15.2091 7.77171 15.6991 7.42171 16.3291 6.97171L17.4191 6.21171C17.8491 5.97171 18.3191 5.70171 18.8191 5.42171C19.3291 5.13171 19.8691 4.83171 20.4591 4.50171C21.0691 4.23171 21.7291 3.94171 22.4191 3.64171C23.7791 2.97171 25.4191 2.54171 27.1591 1.96171C28.0591 1.77171 28.9991 1.56171 29.9791 1.35171C30.4691 1.23171 30.9691 1.17171 31.4891 1.11171C32.0091 1.05171 32.5291 0.991707 33.0591 0.931707C37.3291 0.531707 42.3191 0.851707 47.4991 2.47171C52.6691 4.10171 57.9291 7.19171 62.4191 11.7417C64.5691 14.0917 66.6691 16.6717 68.2291 19.7017C68.6491 20.4417 69.0691 21.1917 69.3791 21.9917C69.7191 22.7817 70.0591 23.5817 70.3991 24.3917C70.9091 26.0617 71.5291 27.7317 71.8291 29.5017C73.3991 36.5117 72.6391 44.3617 69.5691 51.5517C66.3791 58.6617 60.7591 65.0817 53.4091 68.9617C50.6991 70.4117 47.8191 71.4917 44.8991 72.2017L45.0691 72.0717C42.9791 75.8117 40.9291 79.4917 38.9191 83.0917L38.7091 83.4717L38.4791 83.1017C36.3091 79.6017 34.1791 76.1717 32.1191 72.8517L32.2991 72.9717C26.0991 72.2617 20.3391 69.9817 15.6191 66.6817C13.2591 65.0217 11.1591 63.1317 9.32909 61.0817C8.40909 60.0617 7.56909 59.0017 6.82909 57.8817C6.44909 57.3317 6.06909 56.7817 5.69909 56.2417C5.32909 55.6917 5.04909 55.1017 4.72909 54.5417C2.20909 49.9917 0.839085 45.1917 0.379085 40.6817C-0.0809147 36.1517 0.359085 31.9217 1.26909 28.2217C1.52909 27.3017 1.77909 26.4117 2.02909 25.5417C2.35909 24.7017 2.66909 23.8817 2.97909 23.0817C3.25909 22.2717 3.66909 21.5517 4.01909 20.8317C4.39909 20.1217 4.69909 19.4117 5.09909 18.7817C6.64909 16.2217 8.20909 14.1917 9.62909 12.6817C10.3491 11.9417 10.9891 11.2817 11.5491 10.7117C12.1591 10.2017 12.6691 9.77171 13.0891 9.42171C13.4991 9.08171 13.8091 8.83171 14.0391 8.64171C14.2491 8.47171 14.3691 8.39171 14.3691 8.39171C14.3691 8.39171 14.2691 8.49171 14.0691 8.68171C13.8491 8.87171 13.5491 9.14171 13.1491 9.49171C12.7391 9.85171 12.2391 10.2917 11.6391 10.8017C11.0891 11.3817 10.4691 12.0417 9.75909 12.7917C8.36909 14.3117 6.82909 16.3517 5.31909 18.9017C4.91909 19.5217 4.62909 20.2417 4.25909 20.9417C3.90909 21.6517 3.50909 22.3717 3.23909 23.1817C2.93909 23.9717 2.62909 24.7817 2.30909 25.6217C2.06909 26.4817 1.82909 27.3717 1.57909 28.2817C0.709085 31.9517 0.289085 36.1517 0.759085 40.6217C1.22909 45.0917 2.59909 49.8317 5.11909 54.3117C5.43909 54.8617 5.71909 55.4517 6.08909 55.9917C6.45908 56.5217 6.83909 57.0617 7.20909 57.6017C7.93909 58.7017 8.77909 59.7517 9.68909 60.7517C11.4991 62.7717 13.5791 64.6417 15.9091 66.2717C20.5791 69.5117 26.2591 71.7517 32.3791 72.4517H32.4991L32.5591 72.5717C34.6191 75.8917 36.7491 79.3117 38.9291 82.8117H38.4891C40.4891 79.2217 42.5391 75.5417 44.6291 71.8017L44.6891 71.7017L44.7991 71.6717C47.6791 70.9717 50.5191 69.9117 53.1891 68.4817C60.4391 64.6517 65.9691 58.3317 69.1291 51.3217C72.1491 44.2417 72.9191 36.4917 71.3791 29.5717C71.0891 27.8217 70.4791 26.1717 69.9791 24.5217L68.9791 22.1517C68.6791 21.3517 68.2591 20.6217 67.8491 19.8817C66.3191 16.8817 64.2391 14.3317 62.1291 12.0017C57.7091 7.50171 52.5191 4.42171 47.4091 2.78171C42.2691 1.19171 37.3291 0.851707 33.0891 1.22171L31.5291 1.39171C31.0191 1.44171 30.5091 1.49171 30.0291 1.61171C29.0591 1.81171 28.1191 2.00171 27.2291 2.19171C25.4891 2.75171 23.8591 3.16171 22.4991 3.82171C21.8091 4.11171 21.1591 4.39171 20.5391 4.66171C19.9591 4.98171 19.4091 5.28171 18.8991 5.55171C18.3891 5.83171 17.9191 6.08171 17.4891 6.32171C17.0891 6.59171 16.7191 6.84171 16.3891 7.06171L14.8891 8.07171C14.5491 8.29171 14.3691 8.40171 14.3691 8.40171V8.39171Z" fill="#D01E4E"/>
<path d="M37.2191 59.0617C25.6991 59.0617 16.3291 49.6617 16.3291 38.1117C16.3291 26.5617 25.6991 17.1617 37.2191 17.1617C42.9891 17.1617 48.3591 19.4717 52.3491 23.6617C52.7291 24.0617 52.7091 24.6917 52.3091 25.0717C51.9091 25.4517 51.2791 25.4317 50.8991 25.0317C47.2991 21.2417 42.4391 19.1517 37.2191 19.1517C26.7991 19.1517 18.3291 27.6517 18.3291 38.1017C18.3291 48.5517 26.7991 57.0517 37.2191 57.0517C47.6391 57.0517 56.1091 48.5517 56.1091 38.1017C56.1091 36.0217 55.7791 33.9817 55.1191 32.0317C54.9391 31.5117 55.2191 30.9417 55.7491 30.7617C56.2691 30.5817 56.8391 30.8717 57.0191 31.3917C57.7491 33.5517 58.1191 35.8017 58.1191 38.1017C58.1191 49.6517 48.7491 59.0517 37.2291 59.0517L37.2191 59.0617Z" fill="#FF7463"/>
<path d="M58.859 31.8018C58.859 33.4418 57.539 34.7618 55.909 34.7618C54.279 34.7618 52.959 33.4318 52.959 31.8018C52.959 30.1718 54.279 28.8418 55.909 28.8418C57.539 28.8418 58.859 30.1718 58.859 31.8018Z" fill="#FF7463"/>
<path d="M36.3292 45.5217L27.9492 38.4917C27.8292 38.3917 27.8092 38.2117 27.9092 38.0917L30.1092 35.4517C30.2092 35.3317 30.3892 35.3117 30.5092 35.4117L35.9892 40.0117C36.1092 40.1117 36.2792 40.1017 36.3792 39.9917L45.0392 30.7417C45.1492 30.6317 45.3292 30.6217 45.4392 30.7317L47.9392 33.0917C48.0492 33.2017 48.0592 33.3817 47.9492 33.4917L36.6992 45.5017C36.5992 45.6117 36.4292 45.6217 36.3092 45.5217H36.3292Z" fill="#FF7463"/>
</g>
<defs>
<clipPath id="clip0_377_463">
<rect width="72.43" height="82.7" fill="white" transform="translate(0.199219 0.771729)"/>
</clipPath>
</defs>
</svg>
